<svg xmlns="http://www.w3.org/2000/svg" viewBox="0 0 576 512"><path d="M488 312.7V456c0 13.3-10.7 24-24 24H348c-6.6 0-12-5.4-12-12V356c0-6.6-5.4-12-12-12h-72c-6.6 0-12 5.4-12 12v112c0 6.6-5.4 12-12 12H112c-13.3 0-24-10.7-24-24V312.7c0-3.6 1.6-7 4.4-9.3l188-154.8c4.4-3.6 10.8-3.6 15.3 0l188 154.8c2.7 2.3 4.3 5.7 4.3 9.3zm83.6-60.9L488 182.9V44.4c0-6.6-5.4-12-12-12h-56c-6.6 0-12 5.4-12 12V117l-89.5-73.7c-17.7-14.6-43.3-14.6-61 0L4.4 251.8c-5.1 4.2-5.8 11.8-1.6 16.9l25.5 31c4.2 5.1 11.8 5.8 16.9 1.6l235.2-193.7c4.4-3.6 10.8-3.6 15.3 0l235.2 193.7c5.1 4.2 12.7 3.5 16.9-1.6l25.5-31c4.2-5.2 3.4-12.7-1.7-16.9z"/><style id="stylish-5" class="stylish" type="text/css">@namespace url(http://www.w3.org/1999/xhtml);
.xdebug-var-dump {
    padding: 4px 8px;
    margin: 5px 10px;
    font-family: Menlo, Monaco, "Consolas", "Lucida Console", "courier new" !important;
    -moz-border-radius: 10px !important;
    -webkit-border-radius: 10px !important;
    -o-border-radius: 10px !important;
    border-radius: 10px !important;
    border: solid 3px #942343 !important;
}
.xdebug-error {
    font-family: Tahoma !important;
    -moz-border-radius: 10px !important;
    -webkit-border-radius: 10px !important;
    -o-border-radius: 10px !important;
    border-radius: 10px !important;
    border: solid 3px #942343 !important;
}
.xdebug-error td,
.xdebug-error th {
    padding: 4px !important;
    border-collapse: collapse !important;
}
.xdebug-error &gt; tbody &gt; tr:first-child &gt; th {
    background: #942343 !important;
    color: #fff;
    font-size: 22px;
    font-weight: normal;
    font-family: Verdana !important;
}
.xdebug-error &gt; tbody &gt; tr:first-child &gt; th span {
    background: #f39800 !important;
    margin: 2px;
    padding: 5px;
    line-height: 150%;
    font-size: 12px !important;
    vertical-align: middle;
    color: #fff !important;
    border: solid 2px #f39800;
    -moz-border-radius: 20px;
    -webkit-border-radius: 20px !important;
    -o-border-radius: 20px !important;
    border-radius: 20px !important;
    height: 20px;
    display: block;
    float: left;
}
.xdebug-error th {
    background: -moz-linear-gradient(top, #fff, #ececec) !important;
    background: -webkit-gradient(linear, left top, left bottom, from(#fff), to(#ececec)) !important;
}
.xdebug-error th {
    border-right: solid 1px #ececec !important;
}
.xdebug-error th:last-child {
    border-right: 0 !important;
}
.xdebug-error td {
    background: #fef9fb !important;
    font-family: Menlo, Monaco, "Consolas", "Lucida Console", "courier new" !important;
}
.xdebug-error td {}
.xdebug-error td {
    border-right: dashed 1px #f0f0f0 !important;
    border-bottom: dashed 1px #f0f0f0 !important;
}
.xdebug-error td:last-child {
    border-right: 0 !important;
}
.xdebug-error tr:last-child td {
    border-bottom: 0 !important;
}
.xdebug-error tr:last-child th,
.xdebug-error tr:last-child td {
    -moz-border-radius: 10px !important;
    -webkit-border-radius: 10px !important;
    -o-border-radius: 10px !important;
    border-radius: 10px !important;
}
font {
    width: 250px;
    max-width: 250px;
    overflow-x: hidden;
}
font[color="#00bb00"],
font[color="#4e9a06"] {
    color: #618e34 !important;
}
font[color="#ff0000"],
font[color="#cc0000"] {
    color: #d83473 !important;
}
font[color="#3465a4"] {
    color: #0075c2 !important;
}
.xdebug-error .xdebug-var-dump {
    padding: 0;
    margin: 0;
    -moz-border-radius: 10px !important;
    -webkit-border-radius: 10px !important;
    -o-border-radius: 10px !important;
    border-radius: 10px !important;
    border: none !important;
}</style></svg>