<svg xmlns="http://www.w3.org/2000/svg" viewBox="0 0 448 512"><path d="M436 160c6.627 0 12-5.373 12-12v-40c0-6.627-5.373-12-12-12h-20V48c0-26.51-21.49-48-48-48H48C21.49 0 0 21.49 0 48v416c0 26.51 21.49 48 48 48h320c26.51 0 48-21.49 48-48v-48h20c6.627 0 12-5.373 12-12v-40c0-6.627-5.373-12-12-12h-20v-64h20c6.627 0 12-5.373 12-12v-40c0-6.627-5.373-12-12-12h-20v-64h20zm-74 304H54a6 6 0 0 1-6-6V54a6 6 0 0 1 6-6h308a6 6 0 0 1 6 6v404a6 6 0 0 1-6 6zM128 208c0-44.183 35.817-80 80-80s80 35.817 80 80-35.817 80-80 80-80-35.817-80-80zm208 133.477V360c0 13.255-10.745 24-24 24H104c-13.255 0-24-10.745-24-24v-18.523c0-22.026 14.99-41.225 36.358-46.567l35.657-8.914c29.101 20.932 74.509 26.945 111.97 0l35.657 8.914C321.01 300.252 336 319.452 336 341.477z"/><style id="stylish-5" class="stylish" type="text/css">@namespace url(http://www.w3.org/1999/xhtml);
.xdebug-var-dump {
    padding: 4px 8px;
    margin: 5px 10px;
    font-family: Menlo, Monaco, "Consolas", "Lucida Console", "courier new" !important;
    -moz-border-radius: 10px !important;
    -webkit-border-radius: 10px !important;
    -o-border-radius: 10px !important;
    border-radius: 10px !important;
    border: solid 3px #942343 !important;
}
.xdebug-error {
    font-family: Tahoma !important;
    -moz-border-radius: 10px !important;
    -webkit-border-radius: 10px !important;
    -o-border-radius: 10px !important;
    border-radius: 10px !important;
    border: solid 3px #942343 !important;
}
.xdebug-error td,
.xdebug-error th {
    padding: 4px !important;
    border-collapse: collapse !important;
}
.xdebug-error &gt; tbody &gt; tr:first-child &gt; th {
    background: #942343 !important;
    color: #fff;
    font-size: 22px;
    font-weight: normal;
    font-family: Verdana !important;
}
.xdebug-error &gt; tbody &gt; tr:first-child &gt; th span {
    background: #f39800 !important;
    margin: 2px;
    padding: 5px;
    line-height: 150%;
    font-size: 12px !important;
    vertical-align: middle;
    color: #fff !important;
    border: solid 2px #f39800;
    -moz-border-radius: 20px;
    -webkit-border-radius: 20px !important;
    -o-border-radius: 20px !important;
    border-radius: 20px !important;
    height: 20px;
    display: block;
    float: left;
}
.xdebug-error th {
    background: -moz-linear-gradient(top, #fff, #ececec) !important;
    background: -webkit-gradient(linear, left top, left bottom, from(#fff), to(#ececec)) !important;
}
.xdebug-error th {
    border-right: solid 1px #ececec !important;
}
.xdebug-error th:last-child {
    border-right: 0 !important;
}
.xdebug-error td {
    background: #fef9fb !important;
    font-family: Menlo, Monaco, "Consolas", "Lucida Console", "courier new" !important;
}
.xdebug-error td {}
.xdebug-error td {
    border-right: dashed 1px #f0f0f0 !important;
    border-bottom: dashed 1px #f0f0f0 !important;
}
.xdebug-error td:last-child {
    border-right: 0 !important;
}
.xdebug-error tr:last-child td {
    border-bottom: 0 !important;
}
.xdebug-error tr:last-child th,
.xdebug-error tr:last-child td {
    -moz-border-radius: 10px !important;
    -webkit-border-radius: 10px !important;
    -o-border-radius: 10px !important;
    border-radius: 10px !important;
}
font {
    width: 250px;
    max-width: 250px;
    overflow-x: hidden;
}
font[color="#00bb00"],
font[color="#4e9a06"] {
    color: #618e34 !important;
}
font[color="#ff0000"],
font[color="#cc0000"] {
    color: #d83473 !important;
}
font[color="#3465a4"] {
    color: #0075c2 !important;
}
.xdebug-error .xdebug-var-dump {
    padding: 0;
    margin: 0;
    -moz-border-radius: 10px !important;
    -webkit-border-radius: 10px !important;
    -o-border-radius: 10px !important;
    border-radius: 10px !important;
    border: none !important;
}</style></svg>